<svg width="28" height="28" viewBox="0 0 28 28" fill="none" xmlns="http://www.w3.org/2000/svg">
<path d="M14.14 19.635C14.14 19.789 14.259 19.915 14.4025 19.915H20.8775C21.021 19.915 21.14 19.789 21.14 19.635V17.955C21.14 17.801 21.021 17.675 20.8775 17.675H14.4025C14.259 17.675 14.14 17.801 14.14 17.955V19.635ZM7.3185 19.8485L14.0385 14.2135C14.1715 14.1015 14.1715 13.895 14.0385 13.783L7.3185 8.1515C7.27793 8.117 7.22832 8.09487 7.17555 8.08773C7.12278 8.08059 7.06906 8.08875 7.02079 8.11123C6.97251 8.13371 6.9317 8.16957 6.9032 8.21455C6.8747 8.25953 6.85971 8.31175 6.86 8.365V10.5595C6.86 10.6435 6.895 10.7205 6.9615 10.773L10.8045 14L6.9615 17.227C6.93022 17.2532 6.90495 17.2858 6.88743 17.3227C6.86992 17.3595 6.86056 17.3997 6.86 17.4405V19.635C6.86 19.873 7.1365 20.0025 7.3185 19.8485ZM26.88 0H1.12C0.5005 0 0 0.5005 0 1.12V26.88C0 27.4995 0.5005 28 1.12 28H26.88C27.4995 28 28 27.4995 28 26.88V1.12C28 0.5005 27.4995 0 26.88 0ZM25.48 25.48H2.52V2.52H25.48V25.48Z" fill="#FF651C"/>
</svg>
