<svg width="130" height="40" viewBox="0 0 130 40" fill="none" xmlns="http://www.w3.org/2000/svg">
<g clip-path="url(#clip0_3_94)">
<path d="M35.6852 31.9369V8.08762H40.7276V27.7796H50.952V31.9369H35.6852Z" fill="white"/>
<path d="M61.6939 32.2863C59.854 32.2863 58.2702 31.9136 56.9427 31.1683C55.6229 30.4152 54.6059 29.3517 53.8917 27.9776C53.1774 26.5957 52.8203 24.9614 52.8203 23.0749C52.8203 21.235 53.1774 19.6202 53.8917 18.2306C54.6059 16.8409 55.6113 15.7579 56.9078 14.9816C58.212 14.2052 59.7415 13.817 61.496 13.817C62.6761 13.817 63.7745 14.0072 64.7916 14.3877C65.8163 14.7603 66.7091 15.3232 67.4699 16.0762C68.2385 16.8293 68.8363 17.7764 69.2633 18.9176C69.6903 20.0511 69.9038 21.3786 69.9038 22.9003V24.2627H54.8001V21.1884H65.2341C65.2341 20.4742 65.0788 19.8414 64.7683 19.2903C64.4578 18.7391 64.0269 18.3083 63.4756 17.9977C62.9322 17.6793 62.2995 17.5202 61.5775 17.5202C60.8245 17.5202 60.1568 17.6949 59.5746 18.0443C59 18.3858 58.5498 18.8478 58.2237 19.43C57.8976 20.0045 57.7307 20.645 57.723 21.3514V24.2744C57.723 25.1595 57.886 25.9241 58.212 26.5685C58.5459 27.2129 59.0156 27.7097 59.6211 28.0591C60.2267 28.4084 60.9447 28.5832 61.7754 28.5832C62.3267 28.5832 62.8312 28.5055 63.2893 28.3502C63.7473 28.1949 64.1394 27.9621 64.4655 27.6515C64.7916 27.3409 65.04 26.9605 65.2108 26.5103L69.799 26.8131C69.5661 27.9155 69.0886 28.8781 68.3667 29.7011C67.6524 30.5162 66.7286 31.1528 65.5951 31.6109C64.4694 32.0612 63.169 32.2863 61.6939 32.2863Z" fill="white"/>
<path d="M77.5859 32.2746C76.4447 32.2746 75.4276 32.0767 74.5348 31.6807C73.6421 31.277 72.9355 30.6831 72.4154 29.899C71.903 29.1072 71.6469 28.1211 71.6469 26.9412C71.6469 25.9475 71.8292 25.1129 72.1941 24.4375C72.559 23.762 73.0559 23.2186 73.6847 22.8071C74.3136 22.3956 75.0278 22.0852 75.8275 21.8755C76.6349 21.6659 77.481 21.5184 78.3661 21.4329C79.4063 21.3243 80.2448 21.2234 80.8814 21.1302C81.5181 21.0292 81.98 20.8818 82.2671 20.6877C82.5544 20.4937 82.698 20.2064 82.698 19.826V19.7561C82.698 19.0186 82.4652 18.448 81.9994 18.0443C81.5414 17.6406 80.8891 17.4387 80.043 17.4387C79.1502 17.4387 78.4399 17.6367 77.9119 18.0326C77.384 18.4208 77.0346 18.9099 76.8638 19.4999L72.2757 19.1273C72.5086 18.0404 72.9666 17.101 73.6498 16.3091C74.3329 15.5095 75.2141 14.8962 76.2932 14.4692C77.3801 14.0344 78.6378 13.817 80.0663 13.817C81.06 13.817 82.011 13.9335 82.9194 14.1664C83.8355 14.3993 84.6467 14.7603 85.3532 15.2494C86.0674 15.7385 86.6302 16.3673 87.0418 17.1359C87.4532 17.8967 87.6589 18.8089 87.6589 19.8726V31.9369H82.9543V29.4565H82.8146C82.5273 30.0155 82.143 30.5085 81.6617 30.9355C81.1803 31.3546 80.602 31.6847 79.9266 31.9252C79.2512 32.1582 78.4709 32.2746 77.5859 32.2746ZM79.0066 28.8509C79.7364 28.8509 80.3807 28.7073 80.9396 28.42C81.4986 28.1251 81.9372 27.7292 82.2555 27.2322C82.5739 26.7354 82.733 26.1726 82.733 25.5438V23.6455C82.5777 23.7465 82.3642 23.8397 82.0925 23.9251C81.8285 24.0027 81.5297 24.0764 81.1959 24.1463C80.862 24.2084 80.5282 24.2666 80.1944 24.3209C79.8605 24.3675 79.5578 24.4103 79.286 24.4491C78.7037 24.5344 78.1952 24.6703 77.7605 24.8566C77.3257 25.043 76.9881 25.2953 76.7474 25.6136C76.5067 25.9241 76.3863 26.3123 76.3863 26.7782C76.3863 27.4536 76.6309 27.9698 77.1201 28.3269C77.6169 28.6763 78.2457 28.8509 79.0066 28.8509Z" fill="white"/>
<path d="M90.8519 31.9369V14.05H95.6613V17.1708H95.8476C96.1737 16.0607 96.721 15.2222 97.4896 14.6555C98.2581 14.081 99.1432 13.7938 100.145 13.7938C100.393 13.7938 100.661 13.8093 100.948 13.8403C101.235 13.8714 101.488 13.9141 101.705 13.9684V18.3703C101.472 18.3004 101.15 18.2383 100.739 18.184C100.327 18.1297 99.9506 18.1025 99.6089 18.1025C98.8792 18.1025 98.2271 18.2617 97.6526 18.58C97.0859 18.8905 96.6356 19.3252 96.3018 19.8842C95.9757 20.4432 95.8127 21.0876 95.8127 21.8173V31.9369H90.8519Z" fill="white"/>
<path d="M108.575 21.596V31.9369H103.614V14.0499H108.342V17.2058H108.552C108.948 16.1655 109.611 15.3426 110.543 14.737C111.475 14.1237 112.604 13.817 113.932 13.817C115.174 13.817 116.257 14.0888 117.18 14.6322C118.104 15.1757 118.822 15.952 119.335 16.9613C119.847 17.9628 120.104 19.1583 120.104 20.548V31.9369H115.143V21.4329C115.151 20.3384 114.871 19.4843 114.304 18.871C113.738 18.2499 112.957 17.9395 111.964 17.9395C111.296 17.9395 110.706 18.083 110.194 18.3703C109.689 18.6575 109.293 19.0768 109.006 19.6279C108.726 20.1715 108.583 20.8274 108.575 21.596Z" fill="white"/>
<path d="M126.257 32.2397C125.489 32.2397 124.829 31.968 124.278 31.4245C123.734 30.8733 123.463 30.2134 123.463 29.4448C123.463 28.684 123.734 28.0319 124.278 27.4885C124.829 26.9451 125.489 26.6733 126.257 26.6733C127.003 26.6733 127.654 26.9451 128.214 27.4885C128.773 28.0319 129.053 28.684 129.053 29.4448C129.053 29.9572 128.92 30.4269 128.657 30.854C128.4 31.2731 128.063 31.6109 127.644 31.867C127.224 32.1155 126.762 32.2397 126.257 32.2397Z" fill="white"/>
<path d="M24.8288 5H4.0991C1.83523 5 0 6.83523 0 9.0991V31.3514C0 33.6152 1.83523 35.4505 4.0991 35.4505H24.8288C27.0927 35.4505 28.9279 33.6152 28.9279 31.3514V9.0991C28.9279 6.83523 27.0927 5 24.8288 5Z" fill="#754FFE"/>
<path d="M18.4271 26.7073C17.1862 27.3747 15.9758 27.6934 14.7959 27.6633C13.6185 27.6248 12.5323 27.2602 11.5373 26.5695C10.5395 25.8734 9.69231 24.878 8.99586 23.5834C8.31096 22.3103 7.95161 21.0628 7.91779 19.8412C7.88646 18.6113 8.16411 17.4923 8.75074 16.484C9.33447 15.4704 10.2172 14.6457 11.3991 14.0099C12.1619 13.5996 12.9481 13.3359 13.758 13.2189C14.5702 13.0936 15.3742 13.146 16.1698 13.376C16.9707 13.6031 17.7341 14.0306 18.4596 14.6584C19.1824 15.2809 19.8356 16.1347 20.4194 17.2198C20.6851 17.7138 20.5002 18.3296 20.0062 18.5953L11.7389 23.0428C11.1959 23.3349 10.519 23.1316 10.227 22.5886C9.9349 22.0457 10.1383 21.3687 10.6812 21.0768L15.497 18.4859C16.3506 18.0268 16.6932 16.8875 15.8822 16.3566C15.409 16.0433 14.8923 15.8745 14.332 15.8504C13.7772 15.8233 13.2204 15.96 12.6618 16.2606C12.0655 16.5813 11.6197 17.0081 11.3246 17.541C11.0265 18.0684 10.8769 18.6337 10.8759 19.2369C10.8773 19.8318 11.0241 20.4073 11.3164 20.9635L12.2397 22.6799C12.627 23.3997 13.0909 23.9467 13.6316 24.3208C14.1693 24.6895 14.7482 24.8837 15.3683 24.9033C15.9855 24.9176 16.6111 24.7543 17.245 24.4133C17.6693 24.1849 18.0216 23.9192 18.3019 23.6161C18.5792 23.3076 18.7805 22.9673 18.9059 22.5951C19.131 21.9265 19.4656 21.2243 20.1204 20.9617L20.1876 20.9347C21.0942 20.5709 22.1446 21.1021 22.0316 22.0723C22.0086 22.2702 21.973 22.4675 21.925 22.6644C21.7331 23.4534 21.3432 24.1965 20.7554 24.8936C20.1647 25.5854 19.3887 26.19 18.4271 26.7073Z" fill="white"/>
</g>
<defs>
<clipPath id="clip0_3_94">
<rect width="130" height="30.4505" fill="white" transform="translate(0 5)"/>
</clipPath>
</defs>
</svg>
