<svg width="130" height="40" viewBox="0 0 130 40" fill="none" xmlns="http://www.w3.org/2000/svg">
<g clip-path="url(#clip0_3_119)">
<path d="M21.1583 6.72556L12.8449 16.4771L9.9478 19.8751L5.05909 25.6116V14.1395L8.68947 18.3999L11.5857 15.0011L4.53235 6.72556L0.648926 8.15516V31.596L4.53235 33.0256L12.8457 23.2731L15.7419 19.8743L20.6315 14.1387V25.6108L17.0003 21.3512L14.1041 24.7492L21.1591 33.0256L25.0408 31.5951V8.15516L21.1583 6.72556Z" fill="#FCFCFC"/>
<path d="M50.7005 19.6978C50.7005 21.4339 50.401 23.0494 49.8019 24.5427C49.2029 26.0368 48.3603 27.3365 47.2724 28.4399C46.1845 29.5441 44.8745 30.41 43.3416 31.0357C41.8096 31.6623 40.1089 31.9756 38.2412 31.9756C36.3735 31.9756 34.671 31.6623 33.133 31.0357C31.5941 30.41 30.2789 29.545 29.185 28.4399C28.0919 27.3356 27.2467 26.0368 26.6468 24.5427C26.0487 23.0485 25.7491 21.4339 25.7491 19.6978C25.7491 17.9618 26.0487 16.3472 26.6468 14.853C27.2459 13.3597 28.0919 12.0627 29.185 10.9636C30.2789 9.86535 31.5941 9.00208 33.133 8.37636C34.671 7.74978 36.3735 7.43649 38.2412 7.43649C40.1089 7.43649 41.8096 7.75237 43.3416 8.38497C44.8745 9.01672 46.1845 9.88171 47.2724 10.9808C48.3603 12.0799 49.2029 13.3761 49.8019 14.8703C50.401 16.3644 50.7005 17.973 50.7005 19.6978ZM44.9984 19.6978C44.9984 18.5118 44.8444 17.4428 44.5371 16.4926C44.229 15.5424 43.7866 14.7377 43.2099 14.0784C42.6333 13.4191 41.9275 12.913 41.0926 12.5619C40.2569 12.2107 39.3076 12.0351 38.2412 12.0351C37.1653 12.0351 36.2056 12.2107 35.3647 12.5619C34.5247 12.9139 33.8164 13.4191 33.2397 14.0784C32.663 14.7377 32.2198 15.5424 31.9125 16.4926C31.6053 17.4428 31.4512 18.5118 31.4512 19.6978C31.4512 20.8959 31.6044 21.9701 31.9125 22.9203C32.2198 23.8705 32.663 24.6752 33.2397 25.3345C33.8155 25.9938 34.5247 26.4964 35.3647 26.8424C36.2056 27.1884 37.1644 27.3614 38.2412 27.3614C39.3076 27.3614 40.2569 27.1884 41.0926 26.8424C41.9275 26.4956 42.6333 25.9929 43.2099 25.3345C43.7866 24.6752 44.229 23.8705 44.5371 22.9203C44.8444 21.9701 44.9984 20.8959 44.9984 19.6978Z" fill="#FCFCFC"/>
<path d="M66.2824 22.0363C66.4855 22.4873 66.6809 22.9495 66.8677 23.422C67.0553 22.9375 67.2515 22.4684 67.4607 22.0114C67.669 21.5552 67.8833 21.1128 68.1036 20.6833L74.2679 8.54161C74.3772 8.33246 74.4899 8.17065 74.6061 8.05532C74.7215 7.93999 74.8506 7.85478 74.9926 7.7997C75.1354 7.74461 75.2973 7.71707 75.4789 7.71707C75.6596 7.71707 75.8722 7.71707 76.1132 7.71707H80.365V31.7122H75.4539V17.9016C75.4539 17.232 75.4875 16.5056 75.5529 15.7258L69.1907 28.0706C68.9936 28.4553 68.7268 28.7463 68.392 28.9442C68.0563 29.1413 67.675 29.2403 67.2464 29.2403H66.4881C66.0586 29.2403 65.6773 29.1413 65.3425 28.9442C65.0069 28.7471 64.7409 28.4553 64.543 28.0706L58.148 15.7103C58.1919 16.095 58.2247 16.4763 58.247 16.8559C58.2694 17.2354 58.2797 17.584 58.2797 17.9024V31.713H53.3687V7.71707H57.6204C57.8623 7.71707 58.0732 7.71707 58.2548 7.71707C58.4355 7.71707 58.5982 7.74461 58.7411 7.7997C58.8839 7.85478 59.0122 7.93999 59.1284 8.05532C59.2437 8.17065 59.3565 8.33332 59.4666 8.54161L65.6464 20.7333C65.8676 21.1515 66.0784 21.5862 66.2824 22.0363Z" fill="#FCFCFC"/>
<path d="M84.3198 31.7122V7.70071H93.1522C94.8125 7.70071 96.224 7.85478 97.3885 8.16204C98.553 8.46931 99.5032 8.90396 100.239 9.46426C100.975 10.0246 101.511 10.7062 101.847 11.5084C102.182 12.3106 102.349 13.2057 102.349 14.1946C102.349 14.7325 102.272 15.2524 102.118 15.7524C101.964 16.2525 101.723 16.7216 101.393 17.1614C101.064 17.6003 100.64 17.9988 100.124 18.356C99.6074 18.7132 98.9877 19.0231 98.2621 19.2873C99.844 19.672 101.015 20.2952 101.773 21.1576C102.53 22.02 102.909 23.1268 102.909 24.4781C102.909 25.4997 102.712 26.4499 102.316 27.3296C101.921 28.2083 101.341 28.9752 100.576 29.6285C99.8131 30.2826 98.8715 30.793 97.7509 31.1613C96.6302 31.5297 95.3504 31.7139 93.9105 31.7139H84.3198V31.7122ZM89.8902 17.8026H92.7907C93.4061 17.8026 93.9612 17.7587 94.4553 17.6709C94.9493 17.5831 95.3702 17.4291 95.7162 17.2087C96.0613 16.9893 96.3256 16.688 96.5063 16.3024C96.6879 15.9177 96.7783 15.4349 96.7783 14.8522C96.7783 14.2815 96.7068 13.8056 96.5631 13.4269C96.4202 13.0473 96.2016 12.7426 95.9047 12.512C95.6077 12.2813 95.2316 12.1169 94.7755 12.0179C94.3193 11.9181 93.7779 11.869 93.1513 11.869H89.8893V17.8026H89.8902ZM89.8902 21.5277V27.5094H93.8123C94.5474 27.5094 95.1499 27.4173 95.6163 27.2297C96.0828 27.0429 96.4486 26.8011 96.712 26.505C96.9762 26.2081 97.1578 25.8733 97.256 25.4997C97.3549 25.1262 97.4031 24.7466 97.4031 24.3628C97.4031 23.9238 97.3455 23.5279 97.231 23.1759C97.1157 22.8247 96.9168 22.5286 96.6371 22.2859C96.3583 22.0441 95.9873 21.8573 95.5251 21.7256C95.0629 21.5939 94.4811 21.5277 93.7779 21.5277H89.8902Z" fill="#FCFCFC"/>
<path d="M129.64 19.6978C129.64 21.4339 129.341 23.0494 128.742 24.5427C128.143 26.0368 127.299 27.3365 126.212 28.4399C125.125 29.5441 123.814 30.41 122.282 31.0357C120.75 31.6623 119.049 31.9756 117.182 31.9756C115.313 31.9756 113.612 31.6623 112.074 31.0357C110.535 30.41 109.219 29.545 108.126 28.4399C107.032 27.3356 106.186 26.0368 105.587 24.5427C104.989 23.0485 104.69 21.4339 104.69 19.6978C104.69 17.9618 104.989 16.3472 105.587 14.853C106.186 13.3597 107.032 12.0627 108.126 10.9636C109.219 9.86535 110.535 9.00208 112.074 8.37636C113.612 7.74978 115.313 7.43649 117.182 7.43649C119.049 7.43649 120.75 7.75237 122.282 8.38497C123.814 9.01758 125.126 9.88171 126.212 10.9808C127.3 12.0799 128.143 13.3761 128.742 14.8703C129.341 16.3635 129.64 17.973 129.64 19.6978ZM123.937 19.6978C123.937 18.5118 123.784 17.4428 123.477 16.4926C123.17 15.5424 122.727 14.7377 122.15 14.0784C121.573 13.4191 120.867 12.913 120.032 12.5619C119.197 12.2107 118.248 12.0351 117.182 12.0351C116.105 12.0351 115.146 12.2107 114.305 12.5619C113.464 12.9139 112.756 13.4191 112.18 14.0784C111.604 14.7377 111.16 15.5424 110.853 16.4926C110.546 17.4428 110.393 18.5118 110.393 19.6978C110.393 20.8959 110.546 21.9701 110.853 22.9203C111.16 23.8705 111.604 24.6752 112.18 25.3345C112.756 25.9938 113.465 26.4964 114.305 26.8424C115.146 27.1884 116.104 27.3614 117.182 27.3614C118.248 27.3614 119.197 27.1884 120.032 26.8424C120.867 26.4956 121.574 25.9929 122.15 25.3345C122.727 24.6752 123.17 23.8705 123.477 22.9203C123.784 21.9701 123.937 20.8959 123.937 19.6978Z" fill="#FCFCFC"/>
</g>
<defs>
<clipPath id="clip0_3_119">
<rect width="130" height="27.6823" fill="white" transform="translate(0 6)"/>
</clipPath>
</defs>
</svg>
