<svg width="130" height="40" viewBox="0 0 130 40" fill="none" xmlns="http://www.w3.org/2000/svg">
<mask id="mask0_3_74" style="mask-type:alpha" maskUnits="userSpaceOnUse" x="0" y="3" width="32" height="35">
<path d="M31.0377 3H0V37.1414H31.0377V3Z" fill="white"/>
</mask>
<g mask="url(#mask0_3_74)">
<path d="M6.20752 4.55188L1.55188 10.7594V32.4857C1.55188 33.3089 1.87888 34.0984 2.46095 34.6805C3.04302 35.2626 3.83247 35.5895 4.65564 35.5895H26.382C27.2052 35.5895 27.9946 35.2626 28.5768 34.6805C29.1587 34.0984 29.4857 33.3089 29.4857 32.4857V10.7594L24.8301 4.55188H6.20752Z" stroke="white" stroke-width="2" stroke-linecap="round" stroke-linejoin="round"/>
<path d="M1.55188 10.7594H29.4857" stroke="white" stroke-width="2" stroke-linecap="round" stroke-linejoin="round"/>
<path opacity="0.5" d="M21.7264 16.967C21.7264 18.6133 21.0723 20.1922 19.9082 21.3564C18.744 22.5205 17.1651 23.1744 15.5188 23.1744C13.8724 23.1744 12.2936 22.5205 11.1294 21.3564C9.96528 20.1922 9.31128 18.6133 9.31128 16.967" stroke="white" stroke-width="2" stroke-linecap="round" stroke-linejoin="round"/>
</g>
<path d="M45.1487 20.6322L41.5427 23.2298C42.0316 24.2486 42.7142 25.1858 43.5902 26.0414C44.4663 26.897 45.4951 27.5796 46.6768 28.089C47.8788 28.5778 49.1725 28.8223 50.5579 28.8223C51.5563 28.8223 52.5239 28.6696 53.4611 28.3639C54.4186 28.0787 55.2642 27.6509 55.9977 27.0805C56.7514 26.51 57.3423 25.8071 57.7701 24.9718C58.2183 24.1161 58.4425 23.1484 58.4425 22.0686C58.4425 21.1722 58.2999 20.3776 58.0146 19.6849C57.7294 18.9922 57.3321 18.381 56.8227 17.8513C56.3338 17.3215 55.7633 16.8734 55.1114 16.5066C54.4595 16.1195 53.7566 15.7834 53.0027 15.4982C52.0044 15.1518 51.1488 14.8258 50.4356 14.5202C49.743 14.2146 49.2031 13.8785 48.816 13.5117C48.4493 13.145 48.266 12.7172 48.266 12.2282C48.266 11.7596 48.4595 11.3725 48.8465 11.0669C49.2336 10.741 49.7939 10.578 50.5273 10.578C51.0775 10.578 51.5867 10.69 52.0554 10.9141C52.5443 11.1179 52.9823 11.4133 53.3694 11.8004C53.7769 12.1671 54.1334 12.6051 54.4391 13.1145L58.3813 10.9141C58.0146 10.1807 57.4849 9.45744 56.7923 8.74435C56.0994 8.0313 55.2235 7.44047 54.164 6.97187C53.1249 6.50328 51.8924 6.26898 50.4662 6.26898C49.0809 6.26898 47.8177 6.51347 46.6768 7.00243C45.5563 7.47102 44.6598 8.16371 43.9875 9.08053C43.3355 9.99733 43.0096 11.0873 43.0096 12.3505C43.0096 13.4099 43.2032 14.3165 43.5902 15.0703C43.9773 15.8037 44.4663 16.4353 45.0571 16.965C45.648 17.4744 46.2693 17.892 46.9213 18.218C47.5936 18.5439 48.1844 18.7987 48.6938 18.982C49.7329 19.3691 50.5681 19.7155 51.1996 20.0211C51.8312 20.3266 52.2897 20.6527 52.5749 20.999C52.8601 21.325 53.0027 21.7629 53.0027 22.313C53.0027 22.965 52.7583 23.4846 52.2693 23.8716C51.7803 24.2383 51.1589 24.4218 50.4052 24.4218C49.692 24.4218 49.0096 24.2689 48.3576 23.9634C47.726 23.6577 47.1352 23.2197 46.5851 22.6492C46.0554 22.0788 45.5767 21.4064 45.1487 20.6322Z" fill="white"/>
<path d="M66.0825 4.31314H61.4373V28.15H66.0825V4.31314ZM70.5749 19.5933V28.15H75.1894V18.9209C75.1894 17.7596 75.0264 16.7817 74.7005 15.9871C74.3744 15.1926 73.8549 14.5915 73.1419 14.1841C72.4492 13.7766 71.5222 13.5729 70.3608 13.5729C69.1996 13.5729 68.2421 13.8479 67.4882 14.398C66.7548 14.9277 66.2048 15.651 65.838 16.5678C65.4713 17.4642 65.2879 18.4726 65.2879 19.5933H66.0825C66.0825 19.0432 66.1843 18.5848 66.3881 18.218C66.5917 17.8309 66.8771 17.5355 67.2437 17.3318C67.6105 17.1076 68.0383 16.9956 68.5273 16.9956C69.281 16.9956 69.8108 17.2196 70.1165 17.6679C70.422 18.1161 70.5749 18.7578 70.5749 19.5933Z" fill="white"/>
<path d="M78.0112 21.1212C78.0112 22.5881 78.3576 23.8716 79.0502 24.9719C79.7429 26.072 80.7005 26.9276 81.923 27.5389C83.1454 28.15 84.5205 28.4557 86.0486 28.4557C87.5765 28.4557 88.9415 28.15 90.1436 27.5389C91.366 26.9276 92.3235 26.072 93.0163 24.9719C93.7294 23.8716 94.0859 22.5881 94.0859 21.1212C94.0859 19.634 93.7294 18.3403 93.0163 17.2401C92.3235 16.1399 91.366 15.2842 90.1436 14.673C88.9415 14.0618 87.5765 13.7562 86.0486 13.7562C84.5205 13.7562 83.1454 14.0618 81.923 14.673C80.7005 15.2842 79.7429 16.1399 79.0502 17.2401C78.3576 18.3403 78.0112 19.634 78.0112 21.1212ZM82.748 21.1212C82.748 20.3878 82.9009 19.7562 83.2064 19.2265C83.512 18.6968 83.9094 18.2893 84.3982 18.0041C84.8872 17.7189 85.4373 17.5763 86.0486 17.5763C86.6394 17.5763 87.1793 17.7189 87.6682 18.0041C88.1776 18.2893 88.5749 18.6968 88.8601 19.2265C89.1657 19.7562 89.3185 20.3878 89.3185 21.1212C89.3185 21.8546 89.1657 22.4862 88.8601 23.0159C88.5749 23.5253 88.1776 23.9225 87.6682 24.2077C87.1793 24.4931 86.6394 24.6357 86.0486 24.6357C85.4373 24.6357 84.8872 24.4931 84.3982 24.2077C83.9094 23.9225 83.512 23.5253 83.2064 23.0159C82.9009 22.4862 82.748 21.8546 82.748 21.1212Z" fill="white"/>
<path d="M101.446 34.8732V14.0924H96.8315V34.8732H101.446ZM112.937 21.1212C112.937 19.471 112.611 18.0958 111.959 16.9956C111.327 15.8751 110.502 15.0296 109.483 14.4591C108.485 13.8886 107.405 13.6034 106.244 13.6034C105.022 13.6034 103.962 13.9192 103.066 14.5508C102.19 15.162 101.517 16.0279 101.049 17.1483C100.58 18.269 100.346 19.5933 100.346 21.1212C100.346 22.6288 100.58 23.9531 101.049 25.0941C101.517 26.2146 102.19 27.0906 103.066 27.7222C103.962 28.3335 105.022 28.639 106.244 28.639C107.405 28.639 108.485 28.3538 109.483 27.7834C110.502 27.2128 111.327 26.3674 111.959 25.2468C112.611 24.1263 112.937 22.7511 112.937 21.1212ZM108.078 21.1212C108.078 21.8546 107.925 22.4761 107.619 22.9853C107.314 23.4947 106.906 23.8818 106.397 24.1467C105.887 24.4115 105.327 24.5439 104.716 24.5439C104.186 24.5439 103.667 24.4218 103.157 24.1773C102.668 23.9124 102.261 23.5253 101.935 23.0159C101.609 22.5066 101.446 21.8751 101.446 21.1212C101.446 20.3674 101.609 19.7359 101.935 19.2265C102.261 18.7171 102.668 18.3403 103.157 18.0958C103.667 17.8309 104.186 17.6985 104.716 17.6985C105.327 17.6985 105.887 17.8309 106.397 18.0958C106.906 18.3606 107.314 18.7477 107.619 19.2571C107.925 19.7663 108.078 20.3878 108.078 21.1212Z" fill="white"/>
<path d="M129.67 14.0924H124.933L120.44 25.3385L122.824 25.3691L118.271 14.0924H113.198L119.279 27.0193L115.856 34.8732H120.501L129.67 14.0924Z" fill="white"/>
</svg>
