<svg width="130" height="40" viewBox="0 0 130 40" fill="none" xmlns="http://www.w3.org/2000/svg">
<g clip-path="url(#clip0_3_81)">
<path d="M22.8393 29.495V11.0746H30.1067C31.5038 11.0746 32.6941 11.3415 33.6775 11.8751C34.6609 12.4028 35.4103 13.1373 35.9261 14.0787C36.4477 15.0141 36.7085 16.0934 36.7085 17.3167C36.7085 18.5399 36.4448 19.6193 35.917 20.5546C35.3894 21.49 34.6248 22.2186 33.6235 22.7402C32.6281 23.2619 31.4229 23.5228 30.0078 23.5228H25.3757V20.4017H29.3782C30.1277 20.4017 30.7453 20.2728 31.231 20.015C31.7227 19.7511 32.0884 19.3884 32.3283 18.9266C32.5741 18.459 32.697 17.9223 32.697 17.3167C32.697 16.7051 32.5741 16.1714 32.3283 15.7157C32.0884 15.254 31.7227 14.8972 31.231 14.6454C30.7393 14.3875 30.1157 14.2586 29.3602 14.2586H26.7338V29.495H22.8393Z" fill="white"/>
<path d="M39.2382 29.495V11.0746H46.5056C47.8968 11.0746 49.084 11.3235 50.0674 11.8211C51.0568 12.3128 51.8093 13.0114 52.3249 13.9168C52.8467 14.8163 53.1075 15.8746 53.1075 17.0918C53.1075 18.3151 52.8436 19.3674 52.316 20.2488C51.7883 21.1243 51.0238 21.7958 50.0224 22.2635C49.0271 22.7313 47.8218 22.9651 46.4067 22.9651H41.5408V19.8351H45.7771C46.5206 19.8351 47.1383 19.7331 47.63 19.5293C48.1216 19.3254 48.4874 19.0196 48.7272 18.6118C48.9731 18.2041 49.096 17.6974 49.096 17.0918C49.096 16.4802 48.9731 15.9645 48.7272 15.5448C48.4874 15.1251 48.1186 14.8073 47.6209 14.5914C47.1292 14.3695 46.5087 14.2586 45.7591 14.2586H43.1328V29.495H39.2382ZM49.1859 21.1123L53.7641 29.495H49.4648L44.9856 21.1123H49.1859Z" fill="white"/>
<path d="M72.787 20.2848C72.787 22.2936 72.4063 24.0025 71.6447 25.4116C70.8892 26.8207 69.8579 27.897 68.5507 28.6405C67.2495 29.3781 65.7864 29.7468 64.1615 29.7468C62.5245 29.7468 61.0554 29.3751 59.7542 28.6316C58.4531 27.888 57.4247 26.8117 56.6692 25.4026C55.9136 23.9934 55.5359 22.2875 55.5359 20.2848C55.5359 18.2761 55.9136 16.5672 56.6692 15.158C57.4247 13.7489 58.4531 12.6756 59.7542 11.9381C61.0554 11.1946 62.5245 10.8228 64.1615 10.8228C65.7864 10.8228 67.2495 11.1946 68.5507 11.9381C69.8579 12.6756 70.8892 13.7489 71.6447 15.158C72.4063 16.5672 72.787 18.2761 72.787 20.2848ZM68.8385 20.2848C68.8385 18.9837 68.6436 17.8863 68.2538 16.9929C67.8701 16.0995 67.3275 15.4219 66.6259 14.9602C65.9243 14.4985 65.1028 14.2676 64.1615 14.2676C63.22 14.2676 62.3986 14.4985 61.697 14.9602C60.9955 15.4219 60.4498 16.0995 60.0601 16.9929C59.6763 17.8863 59.4844 18.9837 59.4844 20.2848C59.4844 21.586 59.6763 22.6833 60.0601 23.5768C60.4498 24.4702 60.9955 25.1477 61.697 25.6095C62.3986 26.0711 63.22 26.302 64.1615 26.302C65.1028 26.302 65.9243 26.0711 66.6259 25.6095C67.3275 25.1477 67.8701 24.4702 68.2538 23.5768C68.6436 22.6833 68.8385 21.586 68.8385 20.2848Z" fill="white"/>
<path d="M75.6719 11.0746H80.4749L85.5474 23.4508H85.7638L90.8363 11.0746H95.6397V29.495H91.8615V17.5056H91.7084L86.942 29.405H84.3692L79.6025 17.4606H79.4496V29.495H75.6719V11.0746Z" fill="white"/>
<path d="M98.8477 29.495V11.0746H106.115C107.512 11.0746 108.703 11.3415 109.686 11.8751C110.669 12.4028 111.419 13.1373 111.935 14.0787C112.457 15.0141 112.717 16.0934 112.717 17.3167C112.717 18.5399 112.453 19.6193 111.926 20.5546C111.398 21.49 110.633 22.2186 109.632 22.7402C108.637 23.2619 107.432 23.5228 106.017 23.5228H101.384V20.4017H105.387C106.137 20.4017 106.754 20.2728 107.24 20.015C107.731 19.7511 108.097 19.3884 108.337 18.9266C108.583 18.459 108.706 17.9223 108.706 17.3167C108.706 16.7051 108.583 16.1714 108.337 15.7157C108.097 15.254 107.731 14.8972 107.24 14.6454C106.748 14.3875 106.124 14.2586 105.369 14.2586H102.743V29.495H98.8477Z" fill="white"/>
<path d="M114.546 14.2856V11.0746H129.674V14.2856H124.035V29.495H120.185V14.2856H114.546Z" fill="white"/>
<path d="M10.2848 28.8555C15.0183 28.8555 18.8555 25.0183 18.8555 20.2848C18.8555 15.5514 15.0183 11.7141 10.2848 11.7141C5.55139 11.7141 1.71417 15.5514 1.71417 20.2848C1.71417 25.0183 5.55139 28.8555 10.2848 28.8555Z" stroke="white" stroke-width="2.5" stroke-linecap="round" stroke-linejoin="round"/>
<path d="M12.2646 16.8565L17.1842 25.3758" stroke="white" stroke-width="2.5" stroke-linecap="round" stroke-linejoin="round"/>
<path d="M8.30502 16.8565H18.1441" stroke="white" stroke-width="2.5" stroke-linecap="round" stroke-linejoin="round"/>
<path d="M6.32516 20.2848L11.2448 11.7656" stroke="white" stroke-width="2.5" stroke-linecap="round" stroke-linejoin="round"/>
<path d="M8.30501 23.7131L3.38544 15.1938" stroke="white" stroke-width="2.5" stroke-linecap="round" stroke-linejoin="round"/>
<path d="M12.2646 23.7131H2.42548" stroke="white" stroke-width="2.5" stroke-linecap="round" stroke-linejoin="round"/>
<path d="M14.2445 20.2848L9.32495 28.8041" stroke="white" stroke-width="2.5" stroke-linecap="round" stroke-linejoin="round"/>
</g>
<defs>
<clipPath id="clip0_3_81">
<rect width="130" height="20.5696" fill="white" transform="translate(0 10)"/>
</clipPath>
</defs>
</svg>
