<svg width="130" height="40" viewBox="0 0 130 40" fill="none" xmlns="http://www.w3.org/2000/svg">
<path d="M51.9155 30.1967C49.8927 30.1967 48.1562 29.7673 46.7059 28.9086C45.2556 28.0308 44.1393 26.8191 43.3569 25.2734C42.5745 23.7086 42.1833 21.9053 42.1833 19.8635C42.1833 17.8216 42.5745 16.0183 43.3569 14.4535C44.1393 12.8888 45.2556 11.6675 46.7059 10.7897C48.1562 9.91189 49.8927 9.47299 51.9155 9.47299C54.3199 9.47299 56.2854 10.0741 57.812 11.2763C59.3577 12.4594 60.3213 14.1291 60.703 16.2855H56.667C56.4189 15.1978 55.8846 14.3486 55.0641 13.7379C54.2626 13.1082 53.194 12.7934 51.8582 12.7934C50.0072 12.7934 48.5569 13.4231 47.5074 14.6825C46.4578 15.942 45.9331 17.669 45.9331 19.8635C45.9331 22.058 46.4578 23.785 47.5074 25.0444C48.5569 26.2848 50.0072 26.905 51.8582 26.905C53.194 26.905 54.2626 26.6187 55.0641 26.0462C55.8846 25.4547 56.4189 24.6437 56.667 23.6132H60.703C60.3213 25.6741 59.3577 27.2866 57.812 28.4506C56.2854 29.6147 54.3199 30.1967 51.9155 30.1967Z" fill="white"/>
<path d="M63.8604 29.8532V15.6557H67.1235L67.467 18.3178C67.9823 17.4018 68.6788 16.6767 69.5566 16.1423C70.4534 15.589 71.503 15.3123 72.7052 15.3123V19.1765H71.6747C70.8733 19.1765 70.1577 19.3005 69.5279 19.5486C68.8982 19.7967 68.4021 20.2261 68.0395 20.8367C67.696 21.4473 67.5243 22.2965 67.5243 23.3842V29.8532H63.8604Z" fill="white"/>
<path d="M77.1843 13.4517C76.5164 13.4517 75.963 13.2513 75.5241 12.8506C75.1043 12.4499 74.8944 11.9442 74.8944 11.3335C74.8944 10.7229 75.1043 10.2267 75.5241 9.84509C75.963 9.44435 76.5164 9.24399 77.1843 9.24399C77.8522 9.24399 78.3961 9.44435 78.8159 9.84509C79.2548 10.2267 79.4742 10.7229 79.4742 11.3335C79.4742 11.9442 79.2548 12.4499 78.8159 12.8506C78.3961 13.2513 77.8522 13.4517 77.1843 13.4517ZM75.3524 29.8532V15.6557H79.0162V29.8532H75.3524Z" fill="white"/>
<path d="M82.8404 29.8532V9.24399H86.5042V21.4092L91.542 15.6557H95.8929L90.0822 22.1248L96.8375 29.8532H92.2576L86.5042 22.7259V29.8532H82.8404Z" fill="white"/>
<path d="M104.748 30.1967C103.374 30.1967 102.133 29.8818 101.026 29.2521C99.9388 28.6224 99.0705 27.7541 98.4217 26.6473C97.792 25.5215 97.4771 24.2239 97.4771 22.7545C97.4771 21.2851 97.8015 19.9971 98.4503 18.8903C99.0991 17.7644 99.9674 16.8866 101.055 16.2568C102.162 15.6271 103.402 15.3123 104.776 15.3123C106.131 15.3123 107.352 15.6271 108.44 16.2568C109.547 16.8866 110.415 17.7644 111.045 18.8903C111.694 19.9971 112.018 21.2851 112.018 22.7545C112.018 24.2239 111.694 25.5215 111.045 26.6473C110.415 27.7541 109.547 28.6224 108.44 29.2521C107.333 29.8818 106.102 30.1967 104.748 30.1967ZM104.748 27.0194C105.702 27.0194 106.532 26.6664 107.238 25.9604C107.944 25.2352 108.297 24.1666 108.297 22.7545C108.297 21.3424 107.944 20.2833 107.238 19.5772C106.532 18.8521 105.711 18.4895 104.776 18.4895C103.803 18.4895 102.963 18.8521 102.257 19.5772C101.57 20.2833 101.227 21.3424 101.227 22.7545C101.227 24.1666 101.57 25.2352 102.257 25.9604C102.963 26.6664 103.793 27.0194 104.748 27.0194Z" fill="white"/>
<path d="M115.294 29.8532V15.6557H118.528L118.815 18.0602C119.254 17.2205 119.883 16.5526 120.703 16.0565C121.543 15.5603 122.526 15.3123 123.651 15.3123C125.407 15.3123 126.771 15.8657 127.745 16.9724C128.718 18.0793 129.204 19.7013 129.204 21.8385V29.8532H125.541V22.182C125.541 20.9607 125.293 20.0257 124.796 19.3769C124.3 18.7281 123.527 18.4037 122.478 18.4037C121.447 18.4037 120.598 18.7662 119.93 19.4914C119.282 20.2165 118.958 21.2279 118.958 22.5255V29.8532H115.294Z" fill="white"/>
<path d="M22.5677 12.8926V9.57798C22.5677 8.2606 21.4996 7.19266 20.1823 7.19266H3.57801C2.26063 7.19266 1.19269 8.2606 1.19269 9.57798V26.1823C1.19269 27.4996 2.26063 28.5676 3.57801 28.5676H7.42705" stroke="white" stroke-width="2"/>
<path d="M26.2388 13.729H9.63443C8.97574 13.729 8.44177 14.263 8.44177 14.9217V31.526C8.44177 32.1847 8.97574 32.7187 9.63443 32.7187H26.2388C26.8975 32.7187 27.4314 32.1847 27.4314 31.526V14.9217C27.4314 14.263 26.8975 13.729 26.2388 13.729Z" stroke="white" stroke-width="2"/>
</svg>
