<svg width="83" height="60" viewBox="0 0 83 60" fill="none" xmlns="http://www.w3.org/2000/svg">
<path d="M0 22.2321C0 9.94888 9.94888 0 22.2321 0H23.7143C26.9935 0 29.6429 2.64933 29.6429 5.92857C29.6429 9.20781 26.9935 11.8571 23.7143 11.8571H22.2321C16.5074 11.8571 11.8571 16.5074 11.8571 22.2321V23.7143H23.7143C30.2542 23.7143 35.5714 29.0315 35.5714 35.5714V47.4286C35.5714 53.9685 30.2542 59.2857 23.7143 59.2857H11.8571C5.31719 59.2857 0 53.9685 0 47.4286V41.5V35.5714V22.2321ZM47.4286 22.2321C47.4286 9.94888 57.3775 0 69.6607 0H71.1429C74.4221 0 77.0714 2.64933 77.0714 5.92857C77.0714 9.20781 74.4221 11.8571 71.1429 11.8571H69.6607C63.9359 11.8571 59.2857 16.5074 59.2857 22.2321V23.7143H71.1429C77.6828 23.7143 83 29.0315 83 35.5714V47.4286C83 53.9685 77.6828 59.2857 71.1429 59.2857H59.2857C52.7458 59.2857 47.4286 53.9685 47.4286 47.4286V41.5V35.5714V22.2321Z" fill="#373737" fill-opacity="0.1"/>
</svg>
